<svg id="visual" viewBox="0 0 900 600" width="900" height="600" xmlns="http://www.w3.org/2000/svg" xmlns:xlink="http://www.w3.org/1999/xlink" version="1.1"><path d="M0 495L21.5 495.8C43 496.7 86 498.3 128.8 500.8C171.7 503.3 214.3 506.7 257.2 502.2C300 497.7 343 485.3 385.8 486.3C428.7 487.3 471.3 501.7 514.2 502.7C557 503.7 600 491.3 642.8 484C685.7 476.7 728.3 474.3 771.2 478C814 481.7 857 491.3 878.5 496.2L900 501L900 601L878.5 601C857 601 814 601 771.2 601C728.3 601 685.7 601 642.8 601C600 601 557 601 514.2 601C471.3 601 428.7 601 385.8 601C343 601 300 601 257.2 601C214.3 601 171.7 601 128.8 601C86 601 43 601 21.5 601L0 601Z" fill="#0fc185"></path><path d="M0 538L21.5 538C43 538 86 538 128.8 537.5C171.7 537 214.3 536 257.2 533.5C300 531 343 527 385.8 520.3C428.7 513.7 471.3 504.3 514.2 504.7C557 505 600 515 642.8 523.8C685.7 532.7 728.3 540.3 771.2 544.2C814 548 857 548 878.5 548L900 548L900 601L878.5 601C857 601 814 601 771.2 601C728.3 601 685.7 601 642.8 601C600 601 557 601 514.2 601C471.3 601 428.7 601 385.8 601C343 601 300 601 257.2 601C214.3 601 171.7 601 128.8 601C86 601 43 601 21.5 601L0 601Z" fill="#81deb8"></path><path d="M0 571L21.5 567.7C43 564.3 86 557.7 128.8 551.3C171.7 545 214.3 539 257.2 539.5C300 540 343 547 385.8 551C428.7 555 471.3 556 514.2 555.3C557 554.7 600 552.3 642.8 551.5C685.7 550.7 728.3 551.3 771.2 547.7C814 544 857 536 878.5 532L900 528L900 601L878.5 601C857 601 814 601 771.2 601C728.3 601 685.7 601 642.8 601C600 601 557 601 514.2 601C471.3 601 428.7 601 385.8 601C343 601 300 601 257.2 601C214.3 601 171.7 601 128.8 601C86 601 43 601 21.5 601L0 601Z" fill="#cdf9e8"></path></svg>