<svg id="visual" viewBox="0 0 900 600" width="900" height="600" xmlns="http://www.w3.org/2000/svg" xmlns:xlink="http://www.w3.org/1999/xlink" version="1.1"><path d="M0 553L21.5 555.2C43 557.3 86 561.7 128.8 561.3C171.7 561 214.3 556 257.2 553.3C300 550.7 343 550.3 385.8 550C428.7 549.7 471.3 549.3 514.2 551.3C557 553.3 600 557.7 642.8 560.3C685.7 563 728.3 564 771.2 562.2C814 560.3 857 555.7 878.5 553.3L900 551L900 601L878.5 601C857 601 814 601 771.2 601C728.3 601 685.7 601 642.8 601C600 601 557 601 514.2 601C471.3 601 428.7 601 385.8 601C343 601 300 601 257.2 601C214.3 601 171.7 601 128.8 601C86 601 43 601 21.5 601L0 601Z" fill="#0fc185"></path><path d="M0 569L21.5 570.3C43 571.7 86 574.3 128.8 574.3C171.7 574.3 214.3 571.7 257.2 571.7C300 571.7 343 574.3 385.8 575C428.7 575.7 471.3 574.3 514.2 572.2C557 570 600 567 642.8 566.3C685.7 565.7 728.3 567.3 771.2 567.2C814 567 857 565 878.5 564L900 563L900 601L878.5 601C857 601 814 601 771.2 601C728.3 601 685.7 601 642.8 601C600 601 557 601 514.2 601C471.3 601 428.7 601 385.8 601C343 601 300 601 257.2 601C214.3 601 171.7 601 128.8 601C86 601 43 601 21.5 601L0 601Z" fill="#81deb8"></path><path d="M0 580L21.5 581.5C43 583 86 586 128.8 585.7C171.7 585.3 214.3 581.7 257.2 581.7C300 581.7 343 585.3 385.8 586C428.7 586.7 471.3 584.3 514.2 582.3C557 580.3 600 578.7 642.8 579.2C685.7 579.7 728.3 582.3 771.2 583.7C814 585 857 585 878.5 585L900 585L900 601L878.5 601C857 601 814 601 771.2 601C728.3 601 685.7 601 642.8 601C600 601 557 601 514.2 601C471.3 601 428.7 601 385.8 601C343 601 300 601 257.2 601C214.3 601 171.7 601 128.8 601C86 601 43 601 21.5 601L0 601Z" fill="#cdf9e8"></path></svg>